<?xml version="1.0" encoding="UTF-8" standalone="no"?>
<!-- Created with Inkscape (http://www.inkscape.org/) -->

<svg
   xmlns:dc="http://purl.org/dc/elements/1.1/"
   xmlns:cc="http://creativecommons.org/ns#"
   xmlns:rdf="http://www.w3.org/1999/02/22-rdf-syntax-ns#"
   xmlns:svg="http://www.w3.org/2000/svg"
   xmlns="http://www.w3.org/2000/svg"
   xmlns:sodipodi="http://sodipodi.sourceforge.net/DTD/sodipodi-0.dtd"
   xmlns:inkscape="http://www.inkscape.org/namespaces/inkscape"
   width="297mm"
   height="210mm"
   viewBox="0 0 1052.3622 744.09448"
   id="svg2"
   version="1.1"
   inkscape:version="0.91 r13725"
   sodipodi:docname="box.svg">
  <sodipodi:namedview
     id="base"
     pagecolor="#ffffff"
     bordercolor="#666666"
     borderopacity="1.0"
     inkscape:pageopacity="0.0"
     inkscape:pageshadow="2"
     inkscape:zoom="0.98994949"
     inkscape:cx="373.21051"
     inkscape:cy="583.62932"
     inkscape:document-units="px"
     inkscape:current-layer="layer1"
     showgrid="false"
     inkscape:window-width="3840"
     inkscape:window-height="2038"
     inkscape:window-x="0"
     inkscape:window-y="39"
     inkscape:window-maximized="1" />
  <defs
     id="defs4" />
  <metadata
     id="metadata7">
    <rdf:RDF>
      <cc:Work
         rdf:about="">
        <dc:format>image/svg+xml</dc:format>
        <dc:type
           rdf:resource="http://purl.org/dc/dcmitype/StillImage" />
        <dc:title></dc:title>
      </cc:Work>
    </rdf:RDF>
  </metadata>
  <g
     id="layer1"
     inkscape:groupmode="layer"
     inkscape:label="Layer 1"
     transform="translate(0,-308.26772)">
    <path
       id="path4737"
       inkscape:label="part"
       style="fill:none;stroke:#000000;stroke-width:1"
       d="m 363.25107,741.80972 22.73577,0 0,-10.62992 21.57874,0 0,10.62992 22.57632,0 0,-10.62992 21.57874,0 0,10.62992 22.57631,0 0,-10.62992 21.57874,0 0,10.62992 22.57632,0 0,-10.62992 21.57874,0 0,10.62992 22.57632,0 0,-10.62992 21.57874,0 0,10.62992 22.57632,0 0,-10.62992 21.57874,0 0,10.62992 22.57631,0 0,-10.62992 21.57874,0 0,10.62992 22.57632,0 0,-10.62992 21.57874,0 0,10.62992 22.57632,0 0,-10.62992 21.57874,0 0,10.62992 22.57632,0 0,-10.62992 21.57874,0 0,10.62992 22.57631,0 0,-10.62992 21.57874,0 0,10.62992 22.57632,0 0,-10.62992 21.57874,0 0,10.62992 22.73577,0"
       inkscape:connector-curvature="0" />
    <path
       id="path4739"
       inkscape:label="part"
       style="fill:none;stroke:#000000;stroke-width:1"
       d="m 916.00698,741.80972 0,16.69488 -10.62992,0 0,20.94094 10.62992,0 0,27.48426 -10.62992,0 0,20.94094 10.62992,0 0,27.48425 -10.62992,0 0,20.94095 10.62992,0 0,27.48425 -10.62992,0 0,20.94094 10.62992,0 0,27.48426 -10.62992,0 0,20.94094 10.62992,0 0,16.69488"
       inkscape:connector-curvature="0" />
    <path
       id="path4741"
       inkscape:label="part"
       style="fill:none;stroke:#000000;stroke-width:1"
       d="m 916.00698,989.84121 -22.73577,0 0,10.62989 -21.57874,0 0,-10.62989 -22.57632,0 0,10.62989 -21.57874,0 0,-10.62989 -22.57631,0 0,10.62989 -21.57874,0 0,-10.62989 -22.57632,0 0,10.62989 -21.57874,0 0,-10.62989 -22.57632,0 0,10.62989 -21.57874,0 0,-10.62989 -22.57632,0 0,10.62989 -21.57874,0 0,-10.62989 -22.57631,0 0,10.62989 -21.57874,0 0,-10.62989 -22.57632,0 0,10.62989 -21.57874,0 0,-10.62989 -22.57632,0 0,10.62989 -21.57874,0 0,-10.62989 -22.57632,0 0,10.62989 -21.57874,0 0,-10.62989 -22.57631,0 0,10.62989 -21.57874,0 0,-10.62989 -22.57632,0 0,10.62989 -21.57874,0 0,-10.62989 -22.73577,0"
       inkscape:connector-curvature="0" />
    <path
       id="path4743"
       inkscape:label="part"
       style="fill:none;stroke:#000000;stroke-width:1"
       d="m 363.25107,989.84121 0,-16.69488 10.62992,0 0,-20.94094 -10.62992,0 0,-27.48426 10.62992,0 0,-20.94094 -10.62992,0 0,-27.48425 10.62992,0 0,-20.94095 -10.62992,0 0,-27.48425 10.62992,0 0,-20.94094 -10.62992,0 0,-27.48426 10.62992,0 0,-20.94094 -10.62992,0 0,-16.69488"
       inkscape:connector-curvature="0" />
    <path
       id="path4745"
       inkscape:label="part"
       style="fill:none;stroke:#000000;stroke-width:1"
       d="m 101.04635,362.67586 16.37598,0 0,-10.62992 21.57874,0 0,10.62992 26.84646,0 0,-10.62992 21.57874,0 0,10.62992 26.84646,0 0,-10.62992 21.57874,0 0,10.62992 26.84645,0 0,-10.62992 21.57874,0 0,10.62992 26.84646,0 0,-10.62992 21.57874,0 0,10.62992 16.37598,0"
       inkscape:connector-curvature="0" />
    <path
       id="path4747"
       inkscape:label="part"
       style="fill:none;stroke:#000000;stroke-width:1"
       d="m 349.07784,362.67586 0,12.04527 10.62993,0 0,21.57874 -10.62993,0 0,22.51575 10.62993,0 0,21.57874 -10.62993,0 0,22.51575 10.62993,0 0,21.57874 -10.62993,0 0,22.51575 10.62993,0 0,21.57874 -10.62993,0 0,22.51575 10.62993,0 0,21.57874 -10.62993,0 0,22.51574 10.62993,0 0,21.57875 -10.62993,0 0,22.51574 10.62993,0 0,21.57874 -10.62993,0 0,22.51575 10.62993,0 0,21.57874 -10.62993,0 0,12.04528"
       inkscape:connector-curvature="0" />
    <path
       id="path4749"
       inkscape:label="part"
       style="fill:none;stroke:#000000;stroke-width:1"
       d="m 349.07784,717.00657 -16.37598,0 0,10.62992 -21.57874,0 0,-10.62992 -26.84646,0 0,10.62992 -21.57874,0 0,-10.62992 -26.84645,0 0,10.62992 -21.57874,0 0,-10.62992 -26.84646,0 0,10.62992 -21.57874,0 0,-10.62992 -26.84646,0 0,10.62992 -21.57874,0 0,-10.62992 -16.37598,0"
       inkscape:connector-curvature="0" />
    <path
       id="path4751"
       inkscape:label="part"
       style="fill:none;stroke:#000000;stroke-width:1"
       d="m 101.04635,717.00657 0,-12.04528 -10.629924,0 0,-21.57874 10.629924,0 0,-22.51575 -10.629924,0 0,-21.57874 10.629924,0 0,-22.51574 -10.629924,0 0,-21.57875 10.629924,0 0,-22.51574 -10.629924,0 0,-21.57874 10.629924,0 0,-22.51575 -10.629924,0 0,-21.57874 10.629924,0 0,-22.51575 -10.629924,0 0,-21.57874 10.629924,0 0,-22.51575 -10.629924,0 0,-21.57874 10.629924,0 0,-22.51575 -10.629924,0 0,-21.57874 10.629924,0 0,-12.04527"
       inkscape:connector-curvature="0" />
    <path
       id="path4753"
       inkscape:label="part"
       style="fill:none;stroke:#000000;stroke-width:1"
       d="m 363.25107,352.04594 23.05467,0 0,10.62992 20.94094,0 0,-10.62992 23.21411,0 0,10.62992 20.94095,0 0,-10.62992 23.21411,0 0,10.62992 20.94095,0 0,-10.62992 23.21411,0 0,10.62992 20.94094,0 0,-10.62992 23.21412,0 0,10.62992 20.94094,0 0,-10.62992 23.21411,0 0,10.62992 20.94095,0 0,-10.62992 23.21411,0 0,10.62992 20.94095,0 0,-10.62992 23.21411,0 0,10.62992 20.94094,0 0,-10.62992 23.21412,0 0,10.62992 20.94094,0 0,-10.62992 23.21411,0 0,10.62992 20.94095,0 0,-10.62992 23.21411,0 0,10.62992 20.94095,0 0,-10.62992 23.21411,0 0,10.62992 20.94094,0 0,-10.62992 23.05467,0"
       inkscape:connector-curvature="0" />
    <path
       id="path4755"
       inkscape:label="part"
       style="fill:none;stroke:#000000;stroke-width:1"
       d="m 916.00698,352.04594 0,22.99409 -10.62992,0 0,20.94094 10.62992,0 0,23.15355 -10.62992,0 0,20.94094 10.62992,0 0,23.15355 -10.62992,0 0,20.94094 10.62992,0 0,23.15355 -10.62992,0 0,20.94094 10.62992,0 0,23.15354 -10.62992,0 0,20.94095 10.62992,0 0,23.15354 -10.62992,0 0,20.94095 10.62992,0 0,23.15354 -10.62992,0 0,20.94095 10.62992,0 0,23.15354 -10.62992,0 0,20.94094 10.62992,0 0,22.9941"
       inkscape:connector-curvature="0" />
    <path
       id="path4757"
       inkscape:label="part"
       style="fill:none;stroke:#000000;stroke-width:1"
       d="m 916.00698,727.63649 -23.05467,0 0,-10.62992 -20.94094,0 0,10.62992 -23.21411,0 0,-10.62992 -20.94095,0 0,10.62992 -23.21411,0 0,-10.62992 -20.94095,0 0,10.62992 -23.21411,0 0,-10.62992 -20.94094,0 0,10.62992 -23.21412,0 0,-10.62992 -20.94094,0 0,10.62992 -23.21411,0 0,-10.62992 -20.94095,0 0,10.62992 -23.21411,0 0,-10.62992 -20.94095,0 0,10.62992 -23.21411,0 0,-10.62992 -20.94094,0 0,10.62992 -23.21412,0 0,-10.62992 -20.94094,0 0,10.62992 -23.21411,0 0,-10.62992 -20.94095,0 0,10.62992 -23.21411,0 0,-10.62992 -20.94095,0 0,10.62992 -23.21411,0 0,-10.62992 -20.94094,0 0,10.62992 -23.05467,0"
       inkscape:connector-curvature="0" />
    <path
       id="path4759"
       inkscape:label="part"
       style="fill:none;stroke:#000000;stroke-width:1"
       d="m 363.25107,727.63649 0,-22.9941 10.62992,0 0,-20.94094 -10.62992,0 0,-23.15354 10.62992,0 0,-20.94095 -10.62992,0 0,-23.15354 10.62992,0 0,-20.94095 -10.62992,0 0,-23.15354 10.62992,0 0,-20.94095 -10.62992,0 0,-23.15354 10.62992,0 0,-20.94094 -10.62992,0 0,-23.15355 10.62992,0 0,-20.94094 -10.62992,0 0,-23.15355 10.62992,0 0,-20.94094 -10.62992,0 0,-23.15355 10.62992,0 0,-20.94094 -10.62992,0 0,-22.99409"
       inkscape:connector-curvature="0" />
  </g>
  <g
     id="g4168"
     inkscape:groupmode="layer"
     inkscape:label="newlayer"
     transform="translate(0,-308.26772)" />
  <g
     inkscape:label="newlayer"
     inkscape:groupmode="layer"
     id="g4281"
     transform="translate(0,-308.26772)" />
  <g
     id="g4345"
     inkscape:groupmode="layer"
     inkscape:label="newlayer"
     transform="translate(0,-308.26772)" />
  <g
     inkscape:label="newlayer"
     inkscape:groupmode="layer"
     id="g4447"
     transform="translate(0,-308.26772)" />
  <g
     id="g4584"
     inkscape:groupmode="layer"
     inkscape:label="newlayer"
     transform="translate(0,-308.26772)" />
  <g
     inkscape:label="newlayer"
     inkscape:groupmode="layer"
     id="g4708"
     transform="translate(0,-308.26772)" />
  <g
     id="g4767"
     inkscape:groupmode="layer"
     inkscape:label="newlayer"
     transform="translate(0,-308.26772)" />
</svg>
